<?xml version="1.0" encoding="UTF-8"?>
<!DOCTYPE svg PUBLIC "-//W3C//DTD SVG 1.1//EN" "http://www.w3.org/Graphics/SVG/1.1/DTD/svg11.dtd">
<!-- Creator: CorelDRAW 2021 (64-Bit) -->
<svg xmlns="http://www.w3.org/2000/svg" xml:space="preserve" width="50.4964mm" height="15.3866mm" version="1.1" style="shape-rendering:geometricPrecision; text-rendering:geometricPrecision; image-rendering:optimizeQuality; fill-rule:evenodd; clip-rule:evenodd"
viewBox="0 0 4908.56 1495.67"
 xmlns:xlink="http://www.w3.org/1999/xlink"
 xmlns:xodm="http://www.corel.com/coreldraw/odm/2003">
 <defs>
  <style type="text/css">
   <![CDATA[
    .str0 {stroke:#1A0D42;stroke-width:68.59;stroke-linejoin:round;stroke-miterlimit:22.9256}
    .fil0 {fill:#1A0D42}
    .fil2 {fill:#6633FF}
    .fil1 {fill:white}
    .fil3 {fill:white;fill-rule:nonzero}
   ]]>
  </style>
 </defs>
 <g id="Layer_x0020_1">
  <metadata id="CorelCorpID_0Corel-Layer"/>
  <g id="_1991404934976">
   <g>
    <path class="fil0 str0" d="M1473.46 1379.66l63.21 -1154.15c1.34,-24.61 -6.61,-46.3 -23.57,-64.19 -16.96,-17.89 -38.19,-27.01 -62.83,-26.97l-936.98 1.18c-43.43,0.05 -79.61,31.63 -85.53,74.65l-158.49 1151.99c-3.52,25.62 3.47,49.06 20.45,68.56 16.99,19.5 39.24,29.63 65.1,29.66l1032.26 1c45.98,0.04 83.88,-35.81 86.39,-81.72z"/>
    <path class="fil1 str0" d="M1263.96 1254.3c66,-148.63 131.47,-338.91 178.63,-527.48 42.03,-168.07 67.15,-305.39 88.88,-496.87 2.88,-25.37 -4.43,-48.33 -21.45,-67.36 -17.02,-19.03 -39.01,-28.86 -64.54,-28.83l-934.98 1.17c-42.22,0.06 -77.57,29.71 -84.98,71.27 -90.59,507.41 -150.8,660.6 -292.14,990.88 -9.69,22.69 -7.69,46.62 5.68,67.35 13.36,20.74 34.31,32.49 58.98,33.02l964.84 21.01c44.49,0.97 83.03,-23.48 101.09,-64.16z"/>
    <path class="fil2 str0" d="M1179.79 1094.5c165.9,-296.83 278.78,-620.87 337.17,-852.46 6.75,-26.72 1.29,-52.57 -15.66,-74.3 -16.96,-21.74 -40.71,-33.3 -68.28,-33.27 -170.87,0.22 -341.72,-0.16 -512.62,0.17 -151.16,-0.62 -269.81,-1.81 -411.95,-0.13 -41.04,0.49 -75.27,28.67 -83.61,68.87 -79.28,381.86 -219.85,631.6 -378.36,837.22 -13.69,17.75 -15.98,40.21 -6.19,60.37 9.8,20.15 28.89,32.22 51.31,32.43 321.3,2.98 676.34,15.14 993.44,16.44 40.35,0.17 75.06,-20.1 94.76,-55.33z"/>
    <path class="fil0" d="M707.61 179.45c-13.61,-37.3 -16.3,-95.01 3.76,-95.01 9.86,0 17.96,17.22 20.2,35.05 26.77,-0.31 52.56,0.57 52.56,0.57 -0.41,-9.76 -15.16,-114.2 -76.03,-119.78 -80.67,-7.4 -93.07,128.72 -59.45,215.1 -2.3,6.08 -3.57,12.66 -3.57,19.52 0,30.79 25.34,55.77 56.61,55.77 31.26,0 56.61,-24.97 56.61,-55.77 0,-28.82 -22.21,-52.54 -50.69,-55.46z"/>
    <path class="fil0" d="M1110.84 179.45c-13.62,-37.3 -16.31,-95.01 3.75,-95.01 9.87,0 17.96,17.22 20.21,35.05 26.76,-0.31 52.55,0.57 52.55,0.57 -0.41,-9.76 -15.16,-114.2 -76.02,-119.78 -80.68,-7.4 -93.07,128.72 -59.46,215.1 -2.3,6.08 -3.57,12.66 -3.57,19.52 0,30.79 25.34,55.77 56.61,55.77 31.26,0 56.61,-24.97 56.61,-55.77 0,-28.82 -22.21,-52.54 -50.68,-55.46z"/>
    <path class="fil3" d="M783.25 757.45c21.18,6.06 81.04,18.95 92.76,34.91 21.53,29.34 22.88,67.7 9.85,109.96 -28.38,-0.19 -56.68,-0.61 -84.92,-1.22l-91.42 -1.49c17.39,-52.96 23.34,-103.95 5.96,-147.34 -15.91,-39.75 -46.49,-59.46 -92.71,-66.76 3.44,-10.71 7.55,-21.49 11.36,-32.21 41.03,-3.85 80.68,-19.3 118.79,-46.77 40.8,-29.42 76.2,-73.45 97.07,-114.82 8.01,-15.87 13.88,-31.75 19.66,-47.8 59.33,0.86 119.65,-0.18 178.43,2.09 -0.24,0.69 -0.49,1.39 -0.74,2.09 -14.68,40.44 -42.44,75.71 -81.67,103.72 -25.54,18.23 -95.34,29.75 -123.01,36.04 -43.09,9.8 -81.88,43.84 -96.07,84.36 -14.2,40.52 0.59,74.94 36.66,85.24z"/>
    <path class="fil3" d="M831.11 442.97c-30.9,86.83 -107.83,165.11 -183.13,172.27 19.55,-50.49 44.05,-122.6 61.75,-173.13 41.14,0.63 80.29,0.06 121.37,0.87z"/>
    <path class="fil3" d="M668.15 899.7c30.91,-86.83 10.14,-166.29 -59.45,-175.19 -16.41,50.53 -43.22,122.6 -61.49,173.13 41.23,0.36 79.65,1.87 120.94,2.06z"/>
   </g>
   <polygon class="fil3" points="1995.95,1049.09 1995.95,662.26 2121.1,662.26 2121.1,580.61 1783.13,580.61 1783.13,662.26 1908.28,662.26 1908.28,1049.09 "/>
   <path id="_1" class="fil3" d="M2184.02 664.27l89.01 0 0 -83.66 -89.01 0 0 83.66zm4.69 384.82l80.97 0 0 -334.62 -80.97 0 0 334.62z"/>
   <path id="_2" class="fil3" d="M2330.57 879.76c0,109.09 73.62,179.36 184.05,180.04 107.08,-0.67 163.97,-66.26 174.67,-131.85l-87.67 0c-2,7.37 -26.1,54.21 -89.68,54.21 -61.57,-0.67 -100.38,-43.5 -100.38,-103.07 0.67,-60.23 37.48,-97.71 97.71,-97.71 64.91,0 88.34,46.85 90.35,53.54l87.67 0c-6.7,-62.24 -65.58,-130.5 -176.01,-130.5 -108.42,0 -180.71,66.26 -180.71,175.34z"/>
   <path id="_3" class="fil3" d="M2858.62 797c-18.74,16.06 -30.79,44.84 -40.83,67.7l-14.05 -6.03c10.7,-22.86 24.09,-50.97 24.09,-75.84l0 -219.63 -82.31 0 0 485.87 82.31 0 -1.34 -128.05 32.8 -28.89 128.5 156.94 102.4 0 -175.35 -205.46 140.55 -129.16 -102.4 0 -94.37 82.54z"/>
   <path id="_4" class="fil3" d="M3319.73 1059.8c105.07,0 154.6,-71.61 164.64,-106.41l-93.7 0c-6.7,16.73 -34.14,36.13 -78.98,36.13 -68.93,0 -102.39,-46.17 -102.39,-82.98l281.75 0.67c0.67,-6.03 0.67,-22.09 0.67,-28.77 0.67,-92.37 -71.61,-174.01 -188.06,-174.01 -113.1,0 -192.74,75.63 -192.74,175.34 0,99.72 72.94,180.04 208.81,180.04zm-110.43 -208.14c0,-42.17 39.49,-82.32 96.37,-82.32 56.21,0 90.34,36.14 90.34,82.32l-186.71 0z"/>
   <path id="_5" class="fil3" d="M3602.83 936.65c0,53.54 21.41,112.44 84.33,112.44l80.98 0 0 -76.3 -39.49 0c-31.46,0 -44.17,-8.03 -44.17,-36.14l0 -150.58 87 0 0 -71.6 -87 0 0 -126.49 -81.65 0 0 126.49 -66.93 0 0 71.6 66.93 0 0 150.58z"/>
   <path id="_6" class="fil3" d="M4023.8 1059.8c105.07,0 154.6,-71.61 164.64,-106.41l-93.7 0c-6.7,16.73 -34.14,36.13 -78.98,36.13 -68.93,0 -102.39,-46.17 -102.39,-82.98l281.75 0.67c0.67,-6.03 0.67,-22.09 0.67,-28.77 0.67,-92.37 -71.61,-174.01 -188.06,-174.01 -113.1,0 -192.74,75.63 -192.74,175.34 0,99.72 72.94,180.04 208.81,180.04zm-110.43 -208.14c0,-42.17 39.49,-82.32 96.37,-82.32 56.21,0 90.34,36.14 90.34,82.32l-186.71 0z"/>
   <path id="_7" class="fil3" d="M4476.88 1028.34c13.39,-12.71 18.07,-36.81 24.09,-54.21l14.06 5.36c-6.02,17.4 -18.07,38.14 -18.74,56.21l0 13.39 81.65 0 0 -334.62 -81.65 0 0 176.68c0,66.26 -40.16,95.7 -89,95.7 -44.84,0 -76.3,-26.1 -76.3,-95.7l0 -176.68 -82.32 0 0 229.55c0,75.63 63.58,115.11 129.17,115.11 46.18,0 71.61,-4.01 99.05,-30.79z"/>
   <path id="_8" class="fil3" d="M4770.69 737.88c-20.75,15.4 -31.46,48.86 -41.5,72.28l-14.06 -6.03c10.04,-23.42 24.1,-54.21 24.1,-79.64l0 -10.03 -81.65 0 0 334.62 81.65 0 0 -145.9c0,-93.03 86.33,-122.47 169.32,-122.47l0 -76.3c-65.59,0 -102.4,6.02 -137.87,33.46z"/>
  </g>
 </g>
</svg>
